<svg xmlns="http://www.w3.org/2000/svg" xmlns:xlink="http://www.w3.org/1999/xlink" viewBox="211.61 114.54 403.36 237.19"><path fill="#101F22" transform="matrix(0.600446 0 0 0.60026 0 -6.10352e-05)" d="M716.635 513.365C704.853 547.697 678.813 581.417 640.269 585.187C633.994 585.8 576.197 586.04 574.779 584.897C577.047 581.895 597.097 572.781 602.025 570.14C632.544 553.785 644.839 523.185 658.626 492.899C667.032 474.809 675.114 456.57 682.869 438.191L753.204 276.658C757.359 267.349 761.148 257.841 765.323 248.549C770.764 236.963 775.04 223.824 782.214 213.24C796.846 191.652 825.461 183.04 847.699 199.167C861.362 209.075 867.872 221.976 874.517 237.145C876.814 242.388 879.489 248.33 880.422 253.853C883.468 264.893 890.813 277.651 894.894 288.825C900.168 297.97 907.896 316.904 912.244 326.827L943.359 398.47C963.781 444.572 983.85 490.829 1003.57 537.238C1010.4 553.139 1017.6 568.912 1024.18 584.914C976.296 584.694 955.215 589.88 937.158 538.589C935.162 532.918 931.289 526.188 929.256 520.302C914.02 520.336 895.663 519.654 880.767 520.429C874.042 533.048 864.418 547.675 856.781 559.898C854.364 544.445 850.923 528.786 848.831 513.419C834.239 512.979 817.825 513.343 803.122 513.342L716.635 513.365Z"/><path fill="#FEFEFE" transform="matrix(0.600446 0 0 0.60026 0 -6.10352e-05)" d="M716.635 513.365C704.853 547.697 678.813 581.417 640.269 585.187C633.994 585.8 576.197 586.04 574.779 584.897C577.047 581.895 597.097 572.781 602.025 570.14C632.544 553.785 644.839 523.185 658.626 492.899C667.032 474.809 675.114 456.57 682.869 438.191L753.204 276.658C757.359 267.349 761.148 257.841 765.323 248.549C770.764 236.963 775.04 223.824 782.214 213.24C796.846 191.652 825.461 183.04 847.699 199.167C861.362 209.075 867.872 221.976 874.517 237.145C876.814 242.388 879.489 248.33 880.422 253.853C869.82 248.093 859.003 245.388 847.21 249.016C826.306 255.447 820.291 274.026 812.671 291.549L795.676 330.645L744.937 447.431L724.269 494.909C722.958 497.948 717.096 511.137 716.635 513.365Z"/><path fill="#19B5F8" transform="matrix(0.600446 0 0 0.60026 0 -6.10352e-05)" d="M965.534 511.395C953.373 501.158 938.555 492.719 925.317 483.897C920.385 480.61 914.98 477.486 910.628 473.451C906.336 469.472 841.686 317.915 835.757 303.045C834.49 299.866 832.731 295.886 832.658 292.444C832.486 284.436 835.652 276.717 841.398 271.138C846.053 266.663 853.251 263.927 859.629 264.287C877.709 265.307 884.784 278.173 894.894 288.825C900.168 297.97 907.896 316.904 912.244 326.827L943.359 398.47C963.781 444.572 983.85 490.829 1003.57 537.238C1010.4 553.139 1017.6 568.912 1024.18 584.914C976.296 584.694 955.215 589.88 937.158 538.589C935.162 532.918 931.289 526.188 929.256 520.302C939.717 518.709 955.365 514.547 965.534 511.395Z"/><path fill="#19B5F8" transform="matrix(0.600446 0 0 0.60026 0 -6.10352e-05)" d="M835.95 443.316L897.322 482.684C906.123 488.331 923.964 499.295 931.553 505.54C915.913 509.206 900.213 512.609 884.459 515.749C882.385 516.712 881.801 518.4 880.767 520.429C874.042 533.048 864.418 547.675 856.781 559.898C854.364 544.445 850.923 528.786 848.831 513.419C847.662 509.678 846.294 500.865 845.523 496.64C843.256 484.012 841.071 471.37 838.968 458.713C838.053 453.89 837.08 448.041 835.95 443.316Z"/><path fill="#129CF9" transform="matrix(0.600446 0 0 0.60026 0 -6.10352e-05)" d="M838.968 458.713C840.554 455.516 838.198 452.297 839.195 450.038C845.009 458.384 880.669 514.439 884.459 515.749C882.385 516.712 881.801 518.4 880.767 520.429C874.042 533.048 864.418 547.675 856.781 559.898C854.364 544.445 850.923 528.786 848.831 513.419C847.662 509.678 846.294 500.865 845.523 496.64C843.256 484.012 841.071 471.37 838.968 458.713Z"/><path fill="#FEFEFE" transform="matrix(0.600446 0 0 0.60026 0 -6.10352e-05)" d="M761.185 452.182L822.647 452.24C825.368 469.108 828.441 485.918 831.864 502.658L810.797 502.671L740.123 502.754C746.981 485.792 754.363 469.191 761.185 452.182Z"/><path fill="#19B5F8" transform="matrix(0.600446 0 0 0.60026 0 -6.10352e-05)" d="M825.602 365.712L833.519 365.549C829.442 383.099 821.445 408.789 816.01 426.381L807.444 426.389C812.997 407.069 819.162 384.541 825.602 365.712Z"/><path fill="#19B5F8" transform="matrix(0.600446 0 0 0.60026 0 -6.10352e-05)" d="M800.108 374.809C802.632 376.141 804.565 378.369 806.567 380.42C801.163 385.542 795.845 390.755 790.615 396.054C795.585 401.099 800.516 406.182 805.407 411.304C803.516 413.878 801.842 415.603 799.638 417.929C792.4 410.786 785.308 403.495 778.366 396.063C784.187 389.776 793.718 380.489 800.108 374.809Z"/><path fill="#19B5F8" transform="matrix(0.600446 0 0 0.60026 0 -6.10352e-05)" d="M841.94 374.612C845.084 376.411 860.421 392.661 863.659 396.035C858.35 402.022 848.958 410.83 843.046 416.752L841.99 417.292C840.088 416.218 837.9 413.136 836.424 411.301C841.2 406.245 846.571 401.047 851.506 396.092C846.532 390.905 841.487 385.788 836.371 380.741C837.954 378.684 840.122 376.523 841.94 374.612Z"/><defs><linearGradient id="gradient_0" gradientUnits="userSpaceOnUse" x1="463.63602" y1="529.14014" x2="778.39337" y2="211.95485"><stop offset="0" stop-color="#0C90F8"/><stop offset="1" stop-color="#26DBFA"/></linearGradient></defs><path fill="url(#gradient_0)" transform="matrix(0.600446 0 0 0.60026 0 -6.10352e-05)" d="M618.765 361.622C622.424 352.146 627.974 340.696 632.207 331.254L654.679 280.952L672.068 242.874C678.989 227.83 680.426 221.835 692.486 209.898C713.796 188.804 733.565 190.967 761.335 191.591C757.467 202.766 746.432 225.2 741.164 237.079C725.339 272.749 709.33 308.338 693.14 343.844C672.805 388.026 652.778 432.349 633.058 476.809C622.009 501.174 611.028 525.615 599.302 549.794C589.889 569.204 565.897 582.907 544.924 585.184C536.575 586.09 524.973 585.499 516.35 585.436C519.404 577.392 523.624 569.083 527.264 561.224L542.324 528.205L590.567 423.52C560.43 422.868 523.351 423.007 493.2 423.654C457.29 423.891 443.717 423.308 413.681 446.403C426.349 419.124 432.882 393.621 458.911 375.887C485.331 357.887 512.839 361.483 542.998 361.519L618.765 361.622Z"/><path fill="#FEFEFE" transform="matrix(0.600446 0 0 0.60026 0 -6.10352e-05)" d="M413.681 446.403C443.717 423.308 457.29 423.891 493.2 423.654C490.297 430.117 477.694 459.901 474.719 463.599L450.411 517.767C444.638 530.544 435.887 552.051 427.487 562.481C420.632 570.972 411.693 577.541 401.543 581.547C388.675 586.565 366.526 586.306 352.419 585.541C356.318 572.939 364.911 556.057 370.594 543.382C377.324 528.37 384.544 509.294 391.984 494.877C392.638 492.756 399.679 477.027 400.908 474.541C404.351 467.575 409.94 452.441 413.681 446.403Z"/><path fill="#101F22" transform="matrix(0.600446 0 0 0.60026 0 -6.10352e-05)" d="M413.681 446.403C443.717 423.308 457.29 423.891 493.2 423.654C490.297 430.117 477.694 459.901 474.719 463.599C476.793 456.977 481.731 447.33 484.63 440.496C480.13 440.323 475.186 440.065 470.811 440.22C440.971 441.275 413.045 459.774 398.212 485.35C397.088 487.288 393.382 493.348 391.984 494.877C392.638 492.756 399.679 477.027 400.908 474.541C404.351 467.575 409.94 452.441 413.681 446.403Z"/><defs><linearGradient id="gradient_1" gradientUnits="userSpaceOnUse" x1="478.52649" y1="365.13174" x2="576.38116" y2="182.57768"><stop offset="0" stop-color="#0B8DF8"/><stop offset="1" stop-color="#22CDF9"/></linearGradient></defs><path fill="url(#gradient_1)" transform="matrix(0.600446 0 0 0.60026 0 -6.10352e-05)" d="M564.105 191.92C567.849 191.146 591.846 191.546 597.304 191.592C592.196 204.881 583.324 222.791 577.336 236.104C560.665 272.467 544.23 308.938 528.031 345.514C510.563 344.718 498.634 343.779 481.484 347.795C472.705 349.848 463.964 353.269 455.506 356.421C464.671 334.682 476.835 310.783 486.75 289.084L504.123 250.444C508.902 239.753 515.128 224.499 522.173 215.447C532.494 202.372 547.569 193.914 564.105 191.92Z"/></svg>